PathFileType	4	(X/Y/Z)	C:\Documents and Settings\user\My Documents\MotionFiles\BioEngCompLab_Data\Delaware\Subject 2\Static1_smoothed.trc
DataRate	CameraRate	NumFrames	NumMarkers	Units	OrigDataRate	OrigDataStartFrame	OrigNumFrames
60.00	60.00	       7	49	mm	60.00	188	       300
Frame#	Time	R.ASIS			L.ASIS			V.Sacral			R.Thigh.Upper			R.Thigh.Front			R.Thigh.Rear			L.Thigh.Upper			L.Thigh.Front			L.Thigh.Rear			R.Knee.Lat			R.Knee.Med			L.Knee.Lat			L.Knee.Med			R.Shank.Upper			R.Shank.Front			R.Shank.Rear			L.Shank.Upper			L.Shank.Front			L.Shank.Rear			R.Ankle.Lat			R.Ankle.Med			L.Ankle.Lat			L.Ankle.Med			R.Heel			R.Midfoot.Sup			R.Midfoot.Lat			R.Toe.Tip			L.Heel			L.Midfoot.Sup			L.Midfoot.Lat			L.Toe.Tip			Sternum			R.Acromium			L.Acromium			R.Bicep			L.Bicep			R.Elbow			L.Elbow			R.Wrist.Med			R.Wrist.Lat			L.Wrist.Med			L.Wrist.Lat			R.Toe.Lat			R.Toe.Med			L.Toe.Lat			L.Toe.Med			R.Temple			L.Temple			Top.Head			
		X1	Y1	Z1	X2	Y2	Z2	X3	Y3	Z3	X4	Y4	Z4	X5	Y5	Z5	X6	Y6	Z6	X7	Y7	Z7	X8	Y8	Z8	X9	Y9	Z9	X10	Y10	Z10	X11	Y11	Z11	X12	Y12	Z12	X13	Y13	Z13	X14	Y14	Z14	X15	Y15	Z15	X16	Y16	Z16	X17	Y17	Z17	X18	Y18	Z18	X19	Y19	Z19	X20	Y20	Z20	X21	Y21	Z21	X22	Y22	Z22	X23	Y23	Z23	X24	Y24	Z24	X25	Y25	Z25	X26	Y26	Z26	X27	Y27	Z27	X28	Y28	Z28	X29	Y29	Z29	X30	Y30	Z30	X31	Y31	Z31	X32	Y32	Z32	X33	Y33	Z33	X34	Y34	Z34	X35	Y35	Z35	X36	Y36	Z36	X37	Y37	Z37	X38	Y38	Z38	X39	Y39	Z39	X40	Y40	Z40	X41	Y41	Z41	X42	Y42	Z42	X43	Y43	Z43	X44	Y44	Z44	X45	Y45	Z45	X46	Y46	Z46	X47	Y47	Z47	X48	Y48	Z48	X49	Y49	Z49	

188	3.117000	622.080630	1070.071410	165.203110	613.521910	1062.909670	-87.939250	418.829930	1064.958620	36.326050	543.181950	761.354740	218.687760	609.530700	697.317020	159.063370	510.324770	667.008120	214.666790	551.924130	764.089170	-146.829250	612.561520	690.725040	-75.271190	530.063290	634.800660	-134.675480	490.923800	543.636600	199.624280	497.238280	526.768250	72.354550	484.532900	548.156740	-118.792850	514.566410	525.140140	-2.851110	481.901580	461.354030	210.590190	531.379820	389.962220	166.880810	469.134700	379.034420	219.910400	460.421750	451.069400	-137.547560	525.465700	371.453370	-100.243610	438.220890	383.036350	-143.112560	431.800930	104.272670	205.523350	450.229710	114.596690	121.993230	421.534520	104.860080	-126.567090	445.061430	109.292050	-37.161930	366.610200	75.293110	161.692380	509.837770	71.942220	129.393950	479.441890	64.808940	228.326750	647.718380	64.396200	166.679580	352.382690	71.199430	-89.921080	495.037930	66.132290	-49.968150	478.575500	54.170830	-151.619200	634.649170	62.417540	-93.771920	611.118900	1458.151490	28.789690	474.312160	1570.096190	212.743930	458.121490	1567.657590	-128.115780	441.361720	1486.958740	388.275480	435.142850	1481.985960	-332.575780	434.246890	1465.686280	490.387020	441.398930	1470.992310	-425.114070	548.944760	1519.242430	737.629820	482.695250	1531.183230	737.021910	573.773130	1497.301390	-660.656310	501.464940	1505.952030	-673.377990	573.678470	49.096330	242.139690	579.346860	39.331230	129.514420	555.997500	36.917050	-171.013290	569.661320	42.549200	-58.936850	576.050170	1701.343630	105.200810	585.502320	1714.599370	-37.219730	604.654790	1807.318480	28.037380	
189	3.133000	622.069950	1070.098750	165.256710	613.532040	1062.906010	-87.917220	418.816130	1065.006590	36.378030	543.128230	761.367250	218.720990	609.531740	697.316710	159.059810	510.261690	667.007690	214.661150	551.919370	764.071110	-146.763410	612.534730	690.719790	-75.255840	530.045350	634.813290	-134.660540	490.922760	543.636660	199.624890	497.151280	526.732360	72.381770	484.550630	548.164310	-118.763050	514.568970	525.147770	-2.845700	481.893710	461.360350	210.598940	531.370420	389.967560	166.882030	469.047420	379.030640	219.921080	460.421840	451.069700	-137.547410	525.440730	371.484860	-100.255560	438.206090	383.053470	-143.099880	431.800810	104.272840	205.523470	450.228090	114.592700	122.031390	421.030460	104.512770	-126.351770	445.057890	109.291330	-37.167070	366.524260	75.287890	161.728000	509.819640	71.952630	129.400220	479.479280	64.782490	228.319440	647.647950	64.399130	166.652660	352.415860	71.189500	-89.914890	495.034000	66.115700	-49.965230	478.593930	54.185140	-151.609970	634.649170	62.417540	-93.771920	611.205570	1458.118650	28.922220	474.381230	1569.995240	212.804870	458.234190	1567.665530	-128.077580	441.634610	1486.893550	388.366730	435.204100	1482.055050	-332.401280	434.570310	1465.622440	490.365480	441.491360	1471.040410	-425.035680	548.975400	1519.046750	737.728210	482.963380	1530.929570	737.065550	573.995060	1497.357180	-660.538390	501.585570	1506.036740	-673.379940	573.711910	49.077270	242.136520	579.302190	39.347560	129.514600	555.705570	36.875150	-170.864970	569.656190	42.561690	-58.958870	576.165100	1701.332760	105.323740	585.718260	1714.523560	-37.203350	605.008480	1807.250980	27.900900	
190	3.150000	622.067870	1070.108890	165.293870	613.539310	1062.900630	-87.900270	418.823270	1064.971560	36.378010	543.106990	761.374020	218.733460	609.532710	697.317870	159.059740	510.211210	667.011540	214.655430	551.889890	764.051640	-146.655300	612.545780	690.704650	-75.238280	530.029420	634.831970	-134.647080	490.904210	543.640690	199.632390	497.107970	526.714480	72.395320	484.571810	548.174440	-118.724730	514.559200	525.146550	-2.853250	481.874300	461.368320	210.598370	531.364810	389.967250	166.884640	468.996700	379.028500	219.922380	460.397030	451.067540	-137.547990	525.418400	371.514590	-100.269000	438.203670	383.065090	-143.092830	431.799960	104.274200	205.524430	450.189300	114.572050	122.044180	420.681150	104.270630	-126.223090	445.060820	109.293270	-37.166640	366.499270	75.311940	161.753510	509.794040	71.970530	129.409440	479.533050	64.754640	228.332500	647.655330	64.413280	166.656050	352.449250	71.240690	-89.960520	495.013550	66.111000	-49.961960	478.614720	54.190400	-151.605880	634.649170	62.417540	-93.771920	611.298100	1458.079350	29.033230	474.450040	1569.897710	212.857740	458.380490	1567.675780	-128.052410	441.852840	1486.851810	388.450620	435.265230	1482.122680	-332.254730	434.911130	1465.560060	490.330290	441.588930	1471.082150	-424.976200	549.050960	1518.787480	737.800050	483.167910	1530.660160	737.030150	574.194090	1497.393430	-660.409610	501.703550	1506.114140	-673.380190	573.726380	49.069060	242.135150	579.261290	39.356960	129.513150	555.554260	36.848010	-170.791180	569.662960	42.580330	-58.979920	576.383420	1701.311770	105.460930	585.912290	1714.463380	-37.176670	605.307500	1807.181270	27.936070	
191	3.167000	622.059080	1070.106080	165.323120	613.542790	1062.896850	-87.891590	418.833740	1064.851320	36.336090	543.104680	761.376160	218.733810	609.534060	697.321410	159.071060	510.172610	667.017580	214.648450	551.842650	764.051570	-146.528340	612.573730	690.683840	-75.216660	530.024900	634.846860	-134.640370	490.854890	543.651670	199.651780	497.096220	526.709660	72.399060	484.587130	548.182070	-118.696270	514.550230	525.143250	-2.861150	481.829190	461.361300	210.597790	531.363160	389.970090	166.883870	469.001280	379.028720	219.919680	460.357940	451.063600	-137.549180	525.406620	371.534700	-100.277490	438.207700	383.070280	-143.090760	431.799160	104.275450	205.525310	450.106600	114.531310	122.031840	420.542020	104.186390	-126.190060	445.079960	109.303810	-37.157880	366.517940	75.361570	161.774490	509.778410	71.992130	129.416150	479.582950	64.736400	228.360200	647.734990	64.434220	166.687270	352.448730	71.315800	-89.999170	494.976900	66.123230	-49.959130	478.627990	54.192540	-151.603970	634.649170	62.417540	-93.771920	611.383670	1458.043460	29.100240	474.528350	1569.806030	212.914540	458.565800	1567.702880	-128.041950	441.992740	1486.832640	388.507720	435.311000	1482.177730	-332.168300	435.212460	1465.514040	490.293700	441.661650	1471.107300	-424.941860	549.159970	1518.488280	737.855410	483.200200	1530.400270	736.985720	574.365720	1497.406620	-660.265500	501.829280	1506.173220	-673.344120	573.709110	49.078890	242.136780	579.226260	39.361990	129.511030	555.518740	36.859010	-170.762080	569.649780	42.587090	-58.991170	576.695190	1701.261470	105.569700	586.090760	1714.425050	-37.147160	605.561400	1807.092410	28.125300	
192	3.183000	622.035890	1070.101320	165.351970	613.543580	1062.895020	-87.889050	418.849370	1064.675290	36.287120	543.108830	761.375850	218.728500	609.536440	697.328860	159.102420	510.158360	667.022280	214.641820	551.803410	764.066040	-146.425830	612.571960	690.657100	-75.177800	530.032840	634.858950	-134.638640	490.770940	543.670780	199.684190	497.099700	526.711060	72.398140	484.594760	548.185850	-118.682290	514.564030	525.146420	-2.849340	481.773380	461.337130	210.600780	531.364140	389.979550	166.878360	469.039950	379.030330	219.916460	460.299770	451.057340	-137.551150	525.417850	371.545410	-100.281670	438.212130	383.072510	-143.090850	431.798650	104.276230	205.525880	450.051880	114.506350	121.999640	420.553470	104.225160	-126.206570	445.125210	109.328280	-37.135720	366.499510	75.428020	161.822130	509.815520	72.023770	129.408740	479.613460	64.741450	228.380550	647.721980	64.434420	166.681230	352.404570	71.356490	-90.003140	494.941040	66.141200	-49.957230	478.629820	54.198720	-151.600300	634.649170	62.417540	-93.771920	611.463260	1458.013060	29.129150	474.623840	1569.723390	212.985020	458.783390	1567.754880	-128.055510	442.039580	1486.835210	388.535770	435.342900	1482.218510	-332.136660	435.422150	1465.489260	490.265960	441.709780	1471.116330	-424.919890	549.278930	1518.198490	737.904970	483.004360	1530.170900	737.013430	574.507140	1497.401610	-660.105650	501.976620	1506.216800	-673.240910	573.673580	49.099090	242.140150	579.213260	39.362670	129.509900	555.538450	36.896310	-170.753020	569.656250	42.592900	-58.982870	577.039430	1701.181640	105.636650	586.264830	1714.410520	-37.122400	605.755370	1807.002690	28.363530	
193	3.200000	622.002010	1070.100710	165.382250	613.543270	1062.894650	-87.889510	418.889370	1064.507320	36.276760	543.111880	761.374880	218.720210	609.540280	697.340820	159.156070	510.175930	667.022160	214.641850	551.784970	764.075010	-146.375460	612.510500	690.622440	-75.111420	530.045530	634.884890	-134.638750	490.673340	543.693730	199.722240	497.107060	526.714110	72.396120	484.597170	548.186830	-118.678720	514.608520	525.159480	-2.810190	481.730010	461.311130	210.604920	531.366030	389.991850	166.870930	469.078520	379.031920	219.914320	460.231780	451.049740	-137.553600	525.448850	371.552730	-100.289810	438.211460	383.074620	-143.089690	431.798430	104.276580	205.526120	450.084960	114.526540	121.957840	420.627010	104.314090	-126.233600	445.195950	109.365390	-37.097870	366.412050	75.493670	161.900360	509.909150	72.062510	129.385790	479.626770	64.774240	228.379970	647.584050	64.416540	166.625850	352.343440	71.342300	-90.000790	494.926030	66.150120	-49.956650	478.628810	54.204370	-151.597060	634.649170	62.417540	-93.771920	611.541200	1457.972780	29.141920	474.721010	1569.668580	213.069180	459.014430	1567.826050	-128.095830	442.019470	1486.849370	388.558690	435.371520	1482.250240	-332.137600	435.527160	1465.480960	490.251070	441.754330	1471.114750	-424.892210	549.371770	1517.969120	737.960820	482.676850	1529.981930	737.140870	574.629150	1497.390260	-659.941650	502.166690	1506.262940	-673.074100	573.643370	49.116280	242.143020	579.232360	39.358870	129.510740	555.547180	36.910560	-170.763320	569.689030	42.602430	-58.955380	577.337220	1701.090940	105.679420	586.441280	1714.414310	-37.102860	605.831600	1806.948360	28.549760	
194	3.217000	621.976620	1070.104980	165.405520	613.542790	1062.894780	-87.890790	418.967320	1064.439090	36.329480	543.110780	761.374510	218.709590	609.544860	697.354920	159.220030	510.210850	667.015260	214.660640	551.774230	764.066770	-146.366640	612.413510	690.587160	-75.033320	530.058350	634.930850	-134.642040	490.602110	543.711910	199.754430	497.112820	526.716430	72.394580	484.596950	548.186520	-118.680080	514.670100	525.178590	-2.755590	481.714600	461.299590	210.606370	531.367490	390.000270	166.865750	469.096220	379.032620	219.913530	460.184200	451.044040	-137.555510	525.475160	371.556030	-100.296410	438.199040	383.079900	-143.083050	431.798400	104.276600	205.526140	450.190860	114.582890	121.923330	420.708770	104.388900	-126.256610	445.273500	109.403850	-37.049930	366.319580	75.525530	161.960860	510.011810	72.093730	129.359470	479.639100	64.812960	228.358340	647.439580	64.402920	166.569340	352.307980	71.295830	-90.033740	494.940550	66.142530	-49.957370	478.631530	54.201810	-151.598420	634.649170	62.417540	-93.771920	611.609250	1457.896730	29.164810	474.787990	1569.663940	213.165630	459.235050	1567.897340	-128.143550	441.980620	1486.859380	388.609950	435.409670	1482.279420	-332.151460	435.556340	1465.481450	490.246460	441.813510	1471.108150	-424.847320	549.412600	1517.817380	738.039860	482.415620	1529.834230	737.333860	574.759770	1497.386470	-659.800110	502.415500	1506.329590	-672.874210	573.631470	49.123060	242.144150	579.269100	39.353050	129.512820	555.510130	36.871460	-170.795270	569.722170	42.606930	-58.907860	577.564820	1701.000000	105.720210	586.613460	1714.419800	-37.073410	605.785520	1806.945560	28.648110	
